<svg xmlns="http://www.w3.org/2000/svg">
<symbol id="cart-icon" viewBox="0 -1 32 32">
  <g stroke="none" stroke-width="1" fill="none" fill-rule="evenodd">
    <g transform="translate(-464 -724)" fill="currentColor">
      <path d="M488,750 C486.896,750 486,750.896 486,752 C486,753.104 486.896,754 488,754 C489.104,754 490,753.104 490,752 C490,750.896 489.104,750 488,750 Z M478,750 C476.896,750 476,750.896 476,752 C476,753.104 476.896,754 478,754 C479.104,754 480,753.104 480,752 C480,750.896 479.104,750 478,750 Z M491,744 C491,745.104 490.104,746 489,746 L478,746 C476.896,746 476,745.104 476,744 L474.333,734 L493.5,734 L491,744 Z M473.97,732 L471.475,724 L465,724 C464.447,724 464,724.448 464,725 C464,725.553 464.447,726 465,726 L470,726 L472.011,732 L472,732 L474,744 C474,746.209 475.791,748 478,748 L489,748 C491.209,748 493,746.209 493,744 L496,732 L473.97,732 Z"/>
    </g>
  </g>
</symbol>


<symbol id="email-icon" viewBox="0 0 24 24" fill="none" xmlns="http://www.w3.org/2000/svg">
<path d="M4 7.00005L10.2 11.65C11.2667 12.45 12.7333 12.45 13.8 11.65L20 7" stroke="currentColor" stroke-width="2" stroke-linecap="round" stroke-linejoin="round"/>
<rect x="3" y="5" width="18" height="14" rx="2" stroke="currentColor" stroke-width="2" stroke-linecap="round"/>
</symbol>

<symbol id="lock-icon" viewBox="0 0 24 24" fill="none" xmlns="http://www.w3.org/2000/svg">
<path d="M7 10.0288C7.47142 10 8.05259 10 8.8 10H15.2C15.9474 10 16.5286 10 17 10.0288M7 10.0288C6.41168 10.0647 5.99429 10.1455 5.63803 10.327C5.07354 10.6146 4.6146 11.0735 4.32698 11.638C4 12.2798 4 13.1198 4 14.8V16.2C4 17.8802 4 18.7202 4.32698 19.362C4.6146 19.9265 5.07354 20.3854 5.63803 20.673C6.27976 21 7.11984 21 8.8 21H15.2C16.8802 21 17.7202 21 18.362 20.673C18.9265 20.3854 19.3854 19.9265 19.673 19.362C20 18.7202 20 17.8802 20 16.2V14.8C20 13.1198 20 12.2798 19.673 11.638C19.3854 11.0735 18.9265 10.6146 18.362 10.327C18.0057 10.1455 17.5883 10.0647 17 10.0288M7 10.0288V8C7 5.23858 9.23858 3 12 3C14.7614 3 17 5.23858 17 8V10.0288" stroke="currentColor" stroke-width="2" stroke-linecap="round" stroke-linejoin="round"/>
</symbol>

<symbol id="eye-icon" viewBox="0 0 24 24" fill="none" xmlns="http://www.w3.org/2000/svg">
<path fill-rule="evenodd" clip-rule="evenodd" d="M12.0001 5.25C9.22586 5.25 6.79699 6.91121 5.12801 8.44832C4.28012 9.22922 3.59626 10.0078 3.12442 10.5906C2.88804 10.8825 2.70368 11.1268 2.57736 11.2997C2.51417 11.3862 2.46542 11.4549 2.43187 11.5029C2.41509 11.5269 2.4021 11.5457 2.393 11.559L2.38227 11.5747L2.37911 11.5794L2.10547 12.0132L2.37809 12.4191L2.37911 12.4206L2.38227 12.4253L2.393 12.441C2.4021 12.4543 2.41509 12.4731 2.43187 12.4971C2.46542 12.5451 2.51417 12.6138 2.57736 12.7003C2.70368 12.8732 2.88804 13.1175 3.12442 13.4094C3.59626 13.9922 4.28012 14.7708 5.12801 15.5517C6.79699 17.0888 9.22586 18.75 12.0001 18.75C14.7743 18.75 17.2031 17.0888 18.8721 15.5517C19.72 14.7708 20.4039 13.9922 20.8757 13.4094C21.1121 13.1175 21.2964 12.8732 21.4228 12.7003C21.4859 12.6138 21.5347 12.5451 21.5682 12.4971C21.585 12.4731 21.598 12.4543 21.6071 12.441L21.6178 12.4253L21.621 12.4206L21.6224 12.4186L21.9035 12L21.622 11.5809L21.621 11.5794L21.6178 11.5747L21.6071 11.559C21.598 11.5457 21.585 11.5269 21.5682 11.5029C21.5347 11.4549 21.4859 11.3862 21.4228 11.2997C21.2964 11.1268 21.1121 10.8825 20.8757 10.5906C20.4039 10.0078 19.72 9.22922 18.8721 8.44832C17.2031 6.91121 14.7743 5.25 12.0001 5.25ZM4.29022 12.4656C4.14684 12.2885 4.02478 12.1311 3.92575 12C4.02478 11.8689 4.14684 11.7115 4.29022 11.5344C4.72924 10.9922 5.36339 10.2708 6.14419 9.55168C7.73256 8.08879 9.80369 6.75 12.0001 6.75C14.1964 6.75 16.2676 8.08879 17.8559 9.55168C18.6367 10.2708 19.2709 10.9922 19.7099 11.5344C19.8533 11.7115 19.9753 11.8689 20.0744 12C19.9753 12.1311 19.8533 12.2885 19.7099 12.4656C19.2709 13.0078 18.6367 13.7292 17.8559 14.4483C16.2676 15.9112 14.1964 17.25 12.0001 17.25C9.80369 17.25 7.73256 15.9112 6.14419 14.4483C5.36339 13.7292 4.72924 13.0078 4.29022 12.4656ZM14.25 12C14.25 13.2426 13.2427 14.25 12 14.25C10.7574 14.25 9.75005 13.2426 9.75005 12C9.75005 10.7574 10.7574 9.75 12 9.75C13.2427 9.75 14.25 10.7574 14.25 12ZM15.75 12C15.75 14.0711 14.0711 15.75 12 15.75C9.92898 15.75 8.25005 14.0711 8.25005 12C8.25005 9.92893 9.92898 8.25 12 8.25C14.0711 8.25 15.75 9.92893 15.75 12Z" fill="currentColor"/>
</symbol>

<symbol id="market-icon" fill="currentColor"  viewBox="0 0 200 200" data-name="Layer 1"  xmlns="http://www.w3.org/2000/svg"><title/><path d="M181.75,42.5c-3-13-15-22.5-29-22.5h-105a30.6,30.6,0,0,0-29.5,22.5l-10.5,40c-2,7,1,14,7,18l2,1.5c3,1.5,5.5,3,8.5,3.5V160a20.06,20.06,0,0,0,20,20h23.5a20.06,20.06,0,0,0,20-20V140h27.5v20a20.06,20.06,0,0,0,20,20h19a20.06,20.06,0,0,0,20-20V105.5a22.09,22.09,0,0,0,8-3l2-1.5a16.87,16.87,0,0,0,7-18.5ZM156.25,160h-20V140a20.06,20.06,0,0,0-20-20H88.75a20.06,20.06,0,0,0-20,20v20H45.25V100c6.5-2.5,13.5-1.5,19.5,2a21.07,21.07,0,0,0,24,0,21.07,21.07,0,0,1,24,0,21.07,21.07,0,0,0,24,0,20.87,20.87,0,0,1,19.5-2Zm14.5-74.5a40.69,40.69,0,0,0-46,0,.94.94,0,0,1-1.5,0,40.69,40.69,0,0,0-46,0,.94.94,0,0,1-1.5,0,40.69,40.69,0,0,0-46,0,.94.94,0,0,1-1.5,0l9.5-38c1-4.5,5-7.5,10-7.5h105.5a9.64,9.64,0,0,1,9.5,7.5l9.5,38S171.25,86,170.75,85.5Z"/></symbol>
</svg>
